<?xml version="1.0" standalone="no"?>
<!DOCTYPE svg PUBLIC "-//W3C//DTD SVG 20010904//EN"
 "http://www.w3.org/TR/2001/REC-SVG-20010904/DTD/svg10.dtd">
<svg version="1.0" xmlns="http://www.w3.org/2000/svg"
 width="212.000000pt" height="212.000000pt" viewBox="0 0 212.000000 212.000000"
 preserveAspectRatio="xMidYMid meet">
<metadata>
Created by potrace 1.10, written by Peter Selinger 2001-2011
</metadata>
<g transform="translate(0.000000,212.000000) scale(0.100000,-0.100000)"
fill="#000000" stroke="none">
<path d="M790 2013 c-19 -2 -53 -12 -75 -22 -41 -20 -165 -140 -165 -161 0 -7
-15 -33 -34 -59 -19 -26 -38 -60 -42 -76 -4 -17 -12 -41 -19 -55 -16 -31 -43
-110 -44 -130 -11 -132 -20 -221 -25 -236 -3 -11 -8 -75 -12 -144 -13 -277 -1
-335 69 -335 34 0 37 -2 37 -30 0 -50 42 -198 67 -236 l23 -36 -26 -58 c-25
-55 -26 -63 -20 -160 9 -135 16 -128 -224 -222 -99 -38 -126 -52 -103 -53 17
0 71 18 119 40 48 23 88 39 90 37 2 -2 -25 -20 -59 -40 -34 -20 -56 -37 -50
-37 20 0 127 60 145 82 10 11 34 28 53 38 l35 18 0 -24 c0 -13 6 -24 13 -24
22 0 28 12 14 28 -6 8 -13 36 -13 61 -1 25 -2 78 -4 116 -2 81 15 130 45 130
14 0 24 -11 33 -40 7 -22 11 -48 9 -57 -3 -9 -1 -18 5 -20 5 -2 11 -15 13 -28
2 -14 15 -56 28 -95 14 -38 23 -73 20 -77 -2 -5 1 -8 6 -8 6 0 11 -10 11 -22
0 -18 2 -20 9 -9 6 10 3 33 -9 65 -16 46 -30 91 -76 259 -14 49 -36 81 -49 69
-5 -4 -5 1 -2 11 4 10 0 31 -8 48 -9 16 -12 29 -8 29 4 0 -1 6 -10 13 -9 6
-19 28 -22 47 -3 19 -11 40 -17 47 -5 7 -8 19 -5 27 6 15 -9 89 -25 123 -6 11
-8 26 -4 31 3 6 1 33 -6 62 -20 86 14 366 54 442 16 31 18 41 8 53 -11 13 -10
14 2 10 9 -4 18 0 21 9 4 9 1 15 -6 13 -14 -2 -11 46 3 51 5 2 6 10 3 19 -3 8
0 19 8 24 11 7 11 9 -3 9 -9 0 -19 -5 -21 -10 -3 -6 -4 -5 -3 2 1 7 11 15 22
18 23 6 26 70 3 70 -6 0 -8 -7 -5 -16 8 -20 -14 -50 -24 -34 -4 6 -6 -17 -5
-52 1 -62 -16 -120 -30 -99 -3 6 -12 11 -18 10 -9 0 -9 -2 1 -6 6 -2 12 -14
12 -24 0 -11 4 -17 10 -14 5 3 1 -14 -10 -37 -11 -24 -20 -58 -20 -76 0 -20
-4 -31 -10 -27 -6 4 -10 3 -9 -2 1 -4 1 -28 0 -53 -1 -36 -4 -41 -12 -27 -18
31 -28 18 -13 -18 19 -45 18 -65 -3 -81 -17 -13 -17 -13 0 -14 10 0 17 -8 17
-21 0 -11 -4 -17 -10 -14 -6 3 -10 0 -10 -7 -1 -8 -5 -7 -14 5 -13 16 -14 15
-11 -10 5 -66 34 -104 31 -42 0 19 5 34 13 37 11 4 13 -4 8 -37 -3 -23 -1 -56
4 -73 17 -59 -25 -91 -57 -43 -16 24 -15 27 1 45 16 17 16 21 2 34 -8 9 -18
29 -22 45 -7 31 8 130 23 158 6 9 5 27 -2 45 -8 21 -7 33 2 48 15 25 16 43 0
34 -8 -5 -9 -2 -5 10 4 10 7 22 7 27 0 6 4 8 8 5 4 -2 7 12 5 32 -2 29 -1 33
6 17 8 -16 10 -17 10 -3 1 9 -3 19 -7 22 -13 8 -5 138 9 147 7 4 9 14 6 23 -8
21 2 48 15 40 6 -4 8 2 3 15 -5 18 -2 24 16 28 20 6 21 7 5 19 -16 11 -15 15
13 47 17 19 31 39 31 43 0 5 -7 0 -15 -10 -8 -11 -18 -17 -21 -13 -9 8 44 86
68 101 10 6 18 19 18 28 0 20 4 20 73 9 26 -4 47 -4 47 1 0 4 7 8 15 8 8 0 15
-4 15 -9 0 -5 10 -11 23 -15 12 -3 36 -18 52 -33 17 -15 43 -34 58 -40 25 -12
26 -11 15 7 -7 10 -16 16 -20 14 -4 -3 -8 2 -8 10 0 9 -8 16 -18 16 -24 0
-101 66 -113 96 -5 16 -16 24 -31 24 l-23 0 24 -19 c18 -13 22 -23 16 -37 -5
-13 -9 -15 -12 -7 -3 8 -14 11 -27 7 -12 -3 -33 -1 -46 5 l-25 9 35 16 c19 8
28 16 20 16 -10 0 -4 11 18 30 24 22 42 30 70 30 52 0 83 -10 80 -26 -5 -20
99 -102 145 -115 23 -6 63 -22 89 -35 26 -13 55 -24 65 -24 20 0 -164 97 -194
102 -10 2 -31 18 -48 37 -43 50 -61 64 -98 78 -32 12 -32 12 18 11 61 -2 75
-6 75 -24 0 -8 4 -14 10 -14 11 0 1 32 -14 42 -24 16 47 7 71 -9 19 -12 25
-14 19 -4 -7 11 -3 13 20 7 16 -4 32 -13 36 -19 6 -9 10 -8 17 2 12 18 32 5
24 -16 -5 -12 -2 -15 10 -10 9 3 18 2 18 -3 1 -6 2 -14 3 -20 1 -10 145 -100
161 -100 14 0 -68 69 -82 70 -7 0 -13 9 -13 20 0 15 -13 26 -42 40 -24 10 -35
19 -25 19 26 1 107 -20 107 -28 0 -21 119 -35 147 -18 6 4 17 -1 24 -10 12
-14 11 -15 -11 -9 -19 6 -21 5 -10 -3 8 -6 23 -8 33 -5 13 4 34 -10 74 -50 49
-49 54 -58 48 -85 -4 -20 -3 -31 4 -31 6 0 11 9 11 20 0 31 17 24 22 -9 4 -29
-18 -61 -42 -61 -6 0 -10 -4 -10 -8 0 -5 7 -9 15 -9 8 0 15 4 15 9 0 4 7 8 15
8 18 0 45 50 45 82 -1 33 -34 73 -54 65 -10 -4 -19 -1 -22 8 -4 8 -12 15 -20
15 -8 0 -14 11 -15 28 0 24 -1 25 -9 7 -5 -11 -9 -14 -9 -7 -1 18 -20 36 -59
56 -29 15 -60 15 -112 1 -18 -5 -84 27 -81 39 3 9 -18 26 -31 26 -4 0 -5 -6
-2 -14 4 -11 -1 -13 -30 -6 -20 4 -36 6 -36 3 0 -3 -6 -1 -13 5 -7 6 -53 16
-103 22 -89 10 -117 10 -184 3z m350 -87 c0 -2 -9 -6 -20 -9 -11 -3 -18 -1
-14 4 5 9 34 13 34 5z m407 -158 c-3 -8 -6 -5 -6 6 -1 11 2 17 5 13 3 -3 4
-12 1 -19z"/>
<path d="M910 1957 c0 -23 11 -47 22 -47 5 0 6 5 3 10 -4 6 -1 19 6 28 7 9 9
14 5 10 -5 -4 -15 -3 -23 3 -10 9 -13 8 -13 -4z"/>
<path d="M722 1934 c10 -10 20 -15 24 -12 3 4 -5 12 -18 18 -22 12 -22 12 -6
-6z"/>
<path d="M772 1920 c0 -14 2 -19 5 -12 2 6 2 18 0 25 -3 6 -5 1 -5 -13z"/>
<path d="M1013 1921 c-1 -14 3 -18 13 -14 11 4 12 9 3 19 -15 18 -14 18 -16
-5z"/>
<path d="M958 1923 c7 -3 16 -2 19 1 4 3 -2 6 -13 5 -11 0 -14 -3 -6 -6z"/>
<path d="M956 1901 c-8 -12 19 -33 99 -75 59 -31 65 -32 40 -11 -16 14 -54 37
-83 51 -29 14 -50 30 -47 35 4 5 4 9 1 9 -3 0 -7 -4 -10 -9z"/>
<path d="M1285 1890 c3 -5 11 -10 16 -10 6 0 7 5 4 10 -3 6 -11 10 -16 10 -6
0 -7 -4 -4 -10z"/>
<path d="M1070 1873 c13 -3 43 -19 65 -36 64 -49 65 -50 65 -44 0 16 -109 87
-131 86 l-24 -2 25 -4z"/>
<path d="M1372 1848 c21 -18 44 -49 52 -68 9 -19 16 -28 16 -20 1 8 8 2 15
-15 13 -28 14 -28 15 -7 0 35 -29 92 -45 86 -7 -3 -15 2 -18 10 -3 8 -21 22
-39 31 l-33 16 37 -33z"/>
<path d="M1326 1845 c4 -8 10 -15 14 -15 5 0 11 -8 15 -19 7 -24 55 -80 55
-65 0 12 -43 78 -65 100 -18 18 -26 18 -19 -1z"/>
<path d="M856 1827 c6 -16 67 -51 62 -35 -3 7 -18 20 -36 30 -19 10 -29 12
-26 5z"/>
<path d="M1267 1823 c-11 -10 -8 -23 5 -20 6 1 21 -12 32 -30 20 -31 46 -44
46 -23 0 6 -7 10 -15 10 -8 0 -15 6 -15 13 -1 12 -34 57 -42 57 -3 0 -8 -3
-11 -7z"/>
<path d="M1173 1765 c4 -9 7 -19 7 -21 0 -3 5 -2 10 1 6 3 10 1 10 -4 0 -6 5
-11 10 -11 18 0 10 18 -17 35 -24 16 -26 16 -20 0z"/>
<path d="M560 1760 c0 -5 5 -10 10 -10 6 0 10 5 10 10 0 6 -4 10 -10 10 -5 0
-10 -4 -10 -10z"/>
<path d="M1034 1748 c-4 -7 -4 -10 1 -6 4 4 23 1 43 -8 19 -8 37 -12 40 -10 3
4 -62 36 -74 36 -1 0 -6 -6 -10 -12z"/>
<path d="M550 1728 c-13 -8 -12 -9 2 -4 11 3 18 -1 20 -12 2 -11 6 -13 11 -6
11 18 -15 35 -33 22z"/>
<path d="M1281 1724 c-7 -9 -22 -14 -32 -11 -10 3 -23 -1 -29 -8 -9 -10 -18
-11 -41 -3 -17 6 -44 8 -61 4 -19 -4 -37 -1 -46 6 -13 10 -14 10 -8 1 5 -9 0
-13 -13 -13 -12 0 -21 4 -21 10 0 5 -9 6 -22 1 -12 -4 -37 -5 -55 -1 -18 5
-33 4 -33 -1 0 -5 -9 -9 -20 -9 -11 0 -20 -6 -20 -12 0 -9 -3 -9 -9 1 -8 12
-12 12 -25 2 -8 -7 -20 -10 -26 -6 -5 3 -10 -1 -10 -9 0 -21 20 -20 36 2 13
16 14 16 8 0 -8 -22 8 -23 47 -2 17 8 37 13 44 10 8 -3 15 0 18 7 2 8 9 6 22
-6 12 -13 21 -15 28 -8 15 15 36 14 53 -4 15 -14 44 -11 44 6 0 4 7 5 17 2 11
-4 14 -3 9 5 -5 8 1 8 24 1 16 -6 30 -15 30 -19 0 -4 8 -11 17 -14 10 -4 14
-4 11 0 -11 10 11 44 28 44 8 0 12 -4 9 -10 -3 -5 3 -10 15 -10 12 0 19 4 15
9 -3 5 4 16 15 24 11 7 17 17 13 20 -9 10 -16 8 -32 -9z"/>
<path d="M1338 1725 c-10 -11 3 -35 18 -35 8 0 33 -18 54 -40 33 -34 40 -48
40 -80 0 -21 5 -42 11 -45 5 -4 9 -17 7 -30 -1 -12 3 -30 11 -39 11 -13 11
-19 0 -32 -10 -12 -10 -20 -1 -35 7 -11 10 -23 8 -28 -3 -4 -1 -23 5 -42 5
-19 12 -43 15 -54 3 -11 7 -123 9 -250 3 -220 -2 -264 -26 -249 -5 3 -5 -6 0
-19 6 -14 8 -27 5 -30 -3 -3 -5 -28 -6 -56 0 -28 -3 -51 -7 -51 -4 0 -8 -13
-8 -30 0 -16 -7 -38 -17 -49 -9 -10 -16 -22 -15 -27 1 -5 -3 -22 -9 -37 -7
-16 -12 -34 -12 -41 0 -8 -6 -19 -14 -25 -14 -12 -18 -51 -6 -51 9 0 40 61 40
81 0 10 4 19 9 19 8 0 26 66 23 83 -1 4 2 7 7 7 5 0 12 14 16 30 12 56 28 21
22 -49 -3 -36 -2 -57 2 -47 11 28 23 4 15 -29 -4 -16 -2 -25 6 -25 6 0 8 6 4
13 -5 8 -4 9 3 2 5 -5 15 -29 22 -53 10 -35 10 -47 -1 -60 -11 -13 -11 -14 1
-8 8 5 16 4 21 -4 5 -8 -22 -41 -81 -98 -49 -47 -89 -89 -89 -94 0 -11 -1 -11
104 90 68 65 107 85 92 46 -3 -8 -2 -13 2 -13 19 3 33 -2 28 -10 -3 -5 4 -11
15 -14 13 -4 18 -10 13 -18 -5 -8 -3 -10 5 -4 8 4 28 -5 50 -23 34 -28 40 -29
53 -15 19 18 49 11 83 -21 13 -12 43 -28 67 -35 24 -7 71 -24 106 -37 110 -42
110 -29 -1 30 -80 42 -188 83 -270 101 -64 15 -113 50 -145 106 -18 30 -49
137 -104 355 -6 23 -8 57 -4 76 5 29 12 37 36 41 16 4 36 17 44 29 22 34 35
143 37 298 0 74 5 160 10 190 21 127 23 208 5 234 -9 14 -16 32 -16 39 0 8 -7
20 -15 27 -8 7 -15 20 -15 29 -1 31 -27 54 -54 47 -29 -7 -36 -29 -9 -24 9 2
22 -7 28 -19 7 -13 20 -33 31 -45 12 -13 13 -18 4 -13 -10 5 -8 1 4 -13 12
-14 21 -42 23 -74 6 -68 6 -75 -1 -123 -2 -22 -8 -80 -12 -130 -4 -49 -10
-100 -15 -112 -4 -12 -3 -38 3 -59 15 -55 5 -144 -17 -161 -15 -10 -16 -16 -7
-25 19 -19 14 -44 -13 -62 -13 -9 -27 -16 -31 -16 -3 0 -3 37 1 83 5 45 8 89
8 97 0 8 4 21 10 28 6 8 5 12 -4 12 -10 0 -10 3 -2 11 7 7 8 20 3 34 -5 12
-11 71 -13 131 -6 112 -14 167 -26 160 -3 -2 -5 10 -5 27 1 18 -4 38 -10 46
-8 11 -8 13 2 7 18 -11 15 10 -5 29 -14 14 -14 18 -2 26 12 8 12 10 0 18 -8 5
-9 10 -2 12 13 5 3 49 -11 49 -6 0 -8 -7 -4 -15 3 -8 1 -15 -4 -15 -13 0 -13
12 0 46 7 18 7 29 1 33 -6 4 -17 22 -25 41 -8 19 -15 29 -16 21 0 -11 -6 -8
-23 7 -13 12 -27 22 -32 22 -4 0 -13 7 -19 16 -6 8 -14 12 -18 9z m439 -1551
c-3 -3 -12 -4 -19 -1 -8 3 -5 6 6 6 11 1 17 -2 13 -5z m170 -60 c-6 -6 -47 9
-47 17 0 5 11 3 25 -3 14 -6 24 -13 22 -14z"/>
<path d="M675 1710 c11 -5 27 -9 35 -9 9 0 8 4 -5 9 -11 5 -27 9 -35 9 -9 0
-8 -4 5 -9z"/>
<path d="M737 1709 c7 -7 15 -10 18 -7 3 3 -2 9 -12 12 -14 6 -15 5 -6 -5z"/>
<path d="M1480 1709 c0 -5 5 -7 10 -4 6 3 10 8 10 11 0 2 -4 4 -10 4 -5 0 -10
-5 -10 -11z"/>
<path d="M718 1672 c-10 -2 -18 -11 -18 -20 0 -14 2 -15 9 -3 7 10 24 14 53
12 23 -1 39 1 36 4 -8 8 -56 12 -80 7z"/>
<path d="M625 1640 c-4 -6 -11 -7 -17 -4 -7 5 -8 2 -3 -6 4 -7 2 -16 -6 -21
-8 -5 -9 -9 -3 -9 6 0 20 11 32 25 12 14 18 25 13 25 -6 0 -13 -5 -16 -10z"/>
<path d="M515 1629 c-4 -6 -5 -12 -2 -15 2 -3 7 2 10 11 7 17 1 20 -8 4z"/>
<path d="M668 1633 c7 -3 16 -2 19 1 4 3 -2 6 -13 5 -11 0 -14 -3 -6 -6z"/>
<path d="M1495 1630 c-3 -5 1 -10 10 -10 9 0 13 5 10 10 -3 6 -8 10 -10 10 -2
0 -7 -4 -10 -10z"/>
<path d="M474 1546 c-10 -8 -15 -18 -11 -22 4 -4 15 0 24 9 22 21 12 31 -13
13z"/>
<path d="M1565 1500 c3 -5 11 -10 16 -10 6 0 7 5 4 10 -3 6 -11 10 -16 10 -6
0 -7 -4 -4 -10z"/>
<path d="M952 1430 c0 -14 2 -19 5 -12 2 6 2 18 0 25 -3 6 -5 1 -5 -13z"/>
<path d="M723 1269 c-6 -6 -19 -9 -29 -7 -10 2 -27 -5 -37 -15 -22 -22 -16
-33 10 -19 13 7 44 6 98 -3 44 -7 87 -13 95 -12 8 0 31 -3 50 -8 31 -7 33 -6
21 9 -15 18 -72 36 -115 36 -21 0 -27 4 -22 15 3 8 1 15 -5 15 -5 0 -12 -7
-15 -15 -4 -8 -15 -15 -25 -15 -21 0 -26 16 -6 23 6 3 7 6 2 6 -6 1 -16 -4
-22 -10z"/>
<path d="M619 1249 c-11 -11 -18 -23 -15 -26 3 -3 18 6 32 20 15 15 22 27 15
27 -6 0 -20 -9 -32 -21z"/>
<path d="M1212 1259 c-13 -5 -27 -7 -32 -4 -4 3 -13 -2 -20 -10 -18 -22 15
-47 50 -38 52 13 155 11 179 -4 15 -10 27 -11 33 -5 6 6 -10 21 -45 41 -58 33
-83 38 -89 19 -4 -10 -10 -10 -29 -2 -15 7 -33 8 -47 3z m118 -14 c0 -9 -6
-12 -15 -9 -8 4 -12 10 -9 15 8 14 24 10 24 -6z"/>
<path d="M1115 1240 c-3 -5 -1 -10 4 -10 6 0 11 5 11 10 0 6 -2 10 -4 10 -3 0
-8 -4 -11 -10z"/>
<path d="M1083 1222 c0 -12 5 -22 9 -22 11 0 10 12 -2 30 -7 12 -9 10 -7 -8z"/>
<path d="M1120 1210 c0 -5 5 -10 11 -10 5 0 7 5 4 10 -3 6 -8 10 -11 10 -2 0
-4 -4 -4 -10z"/>
<path d="M675 1166 c-16 -8 -40 -23 -52 -33 -23 -18 -23 -18 26 -20 35 -2 51
2 55 12 8 21 23 18 29 -5 8 -29 72 -29 80 1 6 21 6 21 42 -6 40 -31 60 -27 24
6 -13 11 -18 18 -11 14 6 -3 12 -4 12 -1 0 14 -65 37 -117 41 -40 4 -68 1 -88
-9z m36 -16 c-50 -23 -51 -23 -51 -11 0 11 46 29 75 30 11 0 1 -8 -24 -19z
m84 -10 c3 -5 -3 -10 -14 -10 -11 0 -23 5 -26 10 -3 6 3 10 14 10 11 0 23 -4
26 -10z"/>
<path d="M1592 1160 c0 -14 2 -19 5 -12 2 6 2 18 0 25 -3 6 -5 1 -5 -13z"/>
<path d="M944 1153 c5 -16 2 -23 -11 -26 -16 -4 -16 -5 -1 -6 13 -1 15 -8 12
-28 -3 -15 -9 -32 -15 -39 -5 -6 -6 -14 -2 -18 10 -10 43 46 43 74 -1 14 -8
34 -16 45 -16 20 -16 20 -10 -2z"/>
<path d="M1085 1150 c3 -5 8 -10 11 -10 2 0 4 5 4 10 0 6 -5 10 -11 10 -5 0
-7 -4 -4 -10z"/>
<path d="M1175 1151 c-11 -5 -20 -12 -20 -18 0 -5 -13 -21 -29 -35 -31 -26
-29 -48 5 -48 10 0 19 -5 19 -11 0 -6 6 -9 14 -6 8 3 16 2 18 -4 5 -14 125
-16 139 -2 18 18 6 25 -21 15 -15 -6 -49 -3 -96 8 -41 10 -76 15 -79 12 -3 -3
-5 2 -5 11 0 10 7 17 15 17 8 0 24 9 35 20 11 11 22 20 24 20 2 0 6 -9 9 -20
8 -30 72 -28 81 3 l6 22 18 -21 c10 -12 33 -25 50 -29 18 -3 30 -11 26 -16 -3
-5 0 -9 6 -9 7 0 9 7 6 16 -3 9 -6 18 -6 20 0 2 -8 4 -18 4 -11 0 -29 9 -42
20 -13 12 -18 20 -10 20 7 0 22 -7 32 -17 10 -9 18 -11 18 -6 0 6 -6 16 -14
22 -16 14 -153 23 -181 12z m92 -27 c2 -7 -6 -11 -22 -10 -14 0 -25 7 -25 14
0 16 42 12 47 -4z"/>
<path d="M1398 1133 c5 -10 7 -25 5 -33 -3 -11 -1 -11 6 2 12 17 5 48 -10 48
-6 0 -6 -7 -1 -17z"/>
<path d="M995 1130 c-3 -5 -1 -10 4 -10 6 0 11 5 11 10 0 6 -2 10 -4 10 -3 0
-8 -4 -11 -10z"/>
<path d="M1055 1130 c-10 -16 5 -68 21 -74 12 -5 14 -1 8 17 -4 12 -7 30 -6
39 1 21 -14 33 -23 18z"/>
<path d="M1557 1093 c-11 -10 -8 -20 6 -26 8 -3 13 3 13 14 0 19 -8 24 -19 12z"/>
<path d="M899 1076 c-6 -6 -82 -16 -152 -21 -32 -2 -61 -6 -64 -8 -10 -10 69
-19 113 -13 30 4 44 2 44 -6 0 -7 7 -3 15 8 8 11 15 14 15 7 0 -7 5 -13 12
-13 6 0 9 3 5 6 -3 4 4 15 16 25 12 10 17 18 11 19 -6 0 -13 -2 -15 -4z"/>
<path d="M1065 1030 c-4 -6 -11 -8 -16 -5 -5 4 -9 -4 -9 -16 0 -12 1 -20 3
-18 1 2 11 14 21 27 11 12 16 22 13 22 -3 0 -9 -5 -12 -10z"/>
<path d="M954 1005 c3 -8 2 -15 -3 -15 -4 0 -8 -7 -8 -16 0 -14 2 -14 14 2 16
22 17 44 2 44 -6 0 -9 -7 -5 -15z"/>
<path d="M1563 958 c2 -7 0 -21 -4 -30 -5 -10 -5 -19 0 -23 11 -6 31 25 31 49
0 9 -7 16 -16 16 -9 0 -14 -6 -11 -12z"/>
<path d="M840 909 c-28 -29 -40 -50 -40 -70 0 -22 -6 -30 -25 -35 -13 -3 -24
-9 -23 -13 1 -3 -4 -17 -11 -31 -11 -19 -4 -15 27 15 24 22 42 49 42 61 0 12
7 27 15 34 13 10 15 9 15 -9 0 -11 5 -21 11 -21 6 0 9 -9 6 -20 -3 -11 -1 -17
4 -14 6 3 16 0 24 -6 11 -9 18 -9 30 4 12 12 22 13 43 5 l27 -10 -22 22 c-19
20 -25 21 -49 11 -35 -16 -54 -1 -54 44 0 23 6 38 20 46 11 7 20 16 20 20 0
18 -23 5 -60 -33z"/>
<path d="M1103 928 c2 -7 12 -13 23 -13 19 0 61 -43 56 -58 -1 -5 3 -5 9 -1 9
5 10 2 6 -9 -4 -10 -1 -17 6 -17 7 0 21 -20 31 -43 10 -23 26 -50 34 -59 9
-11 12 -24 7 -35 -5 -10 -7 -22 -6 -27 1 -4 -4 -14 -10 -22 -7 -8 -9 -17 -7
-20 7 -6 48 58 48 74 0 16 -41 82 -50 82 -5 0 -11 14 -15 30 -6 28 -17 44 -76
108 -22 23 -64 31 -56 10z"/>
<path d="M932 867 c-8 -10 -6 -13 9 -13 20 0 25 11 10 20 -5 3 -13 0 -19 -7z"/>
<path d="M1150 859 c0 -33 -29 -50 -55 -33 -18 12 -24 11 -50 -6 l-30 -20 38
7 c30 4 37 2 37 -10 0 -9 5 -19 12 -23 7 -4 8 -3 4 4 -4 7 -2 12 4 12 19 0 60
48 60 70 0 11 -4 20 -10 20 -5 0 -10 -10 -10 -21z"/>
<path d="M835 750 c-10 -11 -13 -20 -8 -20 13 0 38 29 31 35 -3 3 -13 -4 -23
-15z"/>
<path d="M903 763 c-7 -2 -13 -12 -12 -21 0 -11 2 -12 6 -4 6 15 39 16 48 1 4
-6 19 -9 33 -8 15 2 32 0 37 -3 6 -4 28 1 50 11 31 13 36 19 22 24 -9 3 -30 1
-45 -5 -15 -6 -36 -10 -47 -9 -40 4 -55 7 -61 14 -8 8 -13 8 -31 0z"/>
<path d="M1220 720 c0 -5 7 -10 15 -10 8 0 15 5 15 10 0 6 -7 10 -15 10 -8 0
-15 -4 -15 -10z"/>
<path d="M710 713 c0 -22 43 -65 51 -51 6 9 11 9 24 -2 16 -13 54 -14 335 -5
47 1 96 7 108 14 27 14 29 25 4 17 -31 -10 -192 -15 -192 -6 0 5 3 10 8 13 4
2 1 2 -6 0 -8 -1 -21 -3 -30 -4 -14 0 -13 -2 3 -9 13 -6 -16 -8 -80 -8 l-100
1 60 13 60 13 -55 -5 c-112 -12 -166 -6 -182 18 -6 10 -8 10 -8 1z"/>
<path d="M1070 700 c0 -5 4 -10 9 -10 6 0 13 5 16 10 3 6 -1 10 -9 10 -9 0
-16 -4 -16 -10z"/>
<path d="M1426 697 c3 -10 9 -15 12 -12 3 3 0 11 -7 18 -10 9 -11 8 -5 -6z"/>
<path d="M1118 693 c6 -2 18 -2 25 0 6 3 1 5 -13 5 -14 0 -19 -2 -12 -5z"/>
<path d="M1048 623 c7 -3 16 -2 19 1 4 3 -2 6 -13 5 -11 0 -14 -3 -6 -6z"/>
<path d="M970 586 c0 -9 30 -14 35 -6 4 6 -3 10 -14 10 -12 0 -21 -2 -21 -4z"/>
<path d="M1038 583 c7 -3 16 -2 19 1 4 3 -2 6 -13 5 -11 0 -14 -3 -6 -6z"/>
<path d="M1099 571 c20 -20 25 -21 37 -9 12 12 11 14 -3 14 -10 1 -27 5 -37 9
-17 7 -16 5 3 -14z"/>
<path d="M890 552 c0 -7 5 -10 10 -7 6 3 15 3 22 -1 18 -11 78 -13 78 -3 0 5
5 9 11 9 6 0 8 -9 4 -20 -3 -11 -2 -20 3 -20 6 0 12 5 14 12 3 9 14 12 61 17
5 1 7 7 5 13 -6 16 -150 11 -160 -6 -5 -7 -8 -6 -8 4 0 9 -9 16 -20 16 -11 0
-20 -6 -20 -14z"/>
<path d="M591 524 c0 -11 3 -14 6 -6 3 7 2 16 -1 19 -3 4 -6 -2 -5 -13z"/>
<path d="M625 520 c3 -5 8 -10 11 -10 2 0 4 5 4 10 0 6 -5 10 -11 10 -5 0 -7
-4 -4 -10z"/>
<path d="M887 456 c-3 -8 1 -17 9 -20 9 -4 14 1 14 14 0 23 -15 27 -23 6z"/>
<path d="M1065 430 c-3 -5 1 -10 10 -10 9 0 13 5 10 10 -3 6 -8 10 -10 10 -2
0 -7 -4 -10 -10z"/>
<path d="M1496 423 c-6 -14 -5 -15 5 -6 7 7 10 15 7 18 -3 3 -9 -2 -12 -12z"/>
<path d="M1035 421 c-3 -5 -1 -12 5 -16 5 -3 10 1 10 9 0 18 -6 21 -15 7z"/>
<path d="M1185 420 c-3 -6 1 -7 9 -4 18 7 21 14 7 14 -6 0 -13 -4 -16 -10z"/>
<path d="M569 389 c-8 -15 -8 -24 0 -32 8 -8 11 -5 11 9 0 11 5 25 12 32 9 9
9 12 0 12 -6 0 -16 -9 -23 -21z"/>
<path d="M650 400 c0 -9 40 -62 54 -72 6 -4 14 -4 20 -1 5 4 7 -1 3 -10 -4
-11 -2 -14 9 -10 20 8 17 21 -7 28 -12 4 -18 13 -15 20 3 8 -3 17 -15 20 -10
4 -17 10 -14 15 3 4 -4 10 -15 13 -11 3 -20 2 -20 -3z"/>
<path d="M910 398 c0 -9 5 -20 10 -23 13 -8 13 5 0 25 -8 13 -10 13 -10 -2z"/>
<path d="M1310 399 c0 -5 5 -7 10 -4 6 3 10 8 10 11 0 2 -4 4 -10 4 -5 0 -10
-5 -10 -11z"/>
<path d="M1480 381 c0 -12 4 -20 9 -16 5 3 12 -5 14 -17 4 -21 4 -20 6 3 0 15
-6 32 -14 39 -13 10 -15 9 -15 -9z"/>
<path d="M760 385 c0 -7 30 -13 34 -7 3 4 -4 9 -15 9 -10 1 -19 0 -19 -2z"/>
<path d="M1540 371 c0 -6 5 -13 10 -16 6 -3 10 1 10 9 0 9 -4 16 -10 16 -5 0
-10 -4 -10 -9z"/>
<path d="M1015 360 c-3 -5 -1 -10 4 -10 6 0 11 5 11 10 0 6 -2 10 -4 10 -3 0
-8 -4 -11 -10z"/>
<path d="M1143 358 c-13 -6 -23 -15 -23 -20 0 -15 27 -8 45 12 20 22 12 25
-22 8z"/>
<path d="M1190 360 c0 -5 5 -10 11 -10 5 0 7 5 4 10 -3 6 -8 10 -11 10 -2 0
-4 -4 -4 -10z"/>
<path d="M938 343 c7 -3 16 -2 19 1 4 3 -2 6 -13 5 -11 0 -14 -3 -6 -6z"/>
<path d="M580 320 c-6 -11 -7 -20 -2 -20 6 0 12 9 15 20 3 11 3 20 1 20 -2 0
-8 -9 -14 -20z"/>
<path d="M860 320 c0 -5 5 -10 10 -10 6 0 10 5 10 10 0 6 -4 10 -10 10 -5 0
-10 -4 -10 -10z"/>
<path d="M910 319 c0 -5 9 -9 20 -9 11 0 20 2 20 4 0 2 -9 6 -20 9 -11 3 -20
1 -20 -4z"/>
<path d="M1070 320 c-9 -6 -10 -10 -3 -10 6 0 15 5 18 10 8 12 4 12 -15 0z"/>
<path d="M1375 320 c-3 -5 -1 -10 4 -10 6 0 11 5 11 10 0 6 -2 10 -4 10 -3 0
-8 -4 -11 -10z"/>
<path d="M1506 304 c-9 -24 -7 -36 6 -32 12 4 19 48 7 48 -4 0 -10 -7 -13 -16z"/>
<path d="M760 299 c0 -5 5 -7 10 -4 6 3 10 8 10 11 0 2 -4 4 -10 4 -5 0 -10
-5 -10 -11z"/>
<path d="M800 301 c0 -6 4 -13 10 -16 6 -3 7 1 4 9 -7 18 -14 21 -14 7z"/>
<path d="M1470 260 c0 -15 21 -23 32 -12 6 6 2 11 -11 15 -12 3 -21 1 -21 -3z"/>
<path d="M596 245 c4 -8 11 -15 16 -15 6 0 5 6 -2 15 -7 8 -14 15 -16 15 -2 0
-1 -7 2 -15z"/>
<path d="M850 250 c-9 -6 -10 -10 -3 -10 6 0 15 5 18 10 8 12 4 12 -15 0z"/>
<path d="M1602 194 c-7 -8 -8 -14 -3 -14 10 0 25 19 20 25 -2 1 -10 -3 -17
-11z"/>
<path d="M1535 190 c-3 -5 -2 -10 4 -10 5 0 13 5 16 10 3 6 2 10 -4 10 -5 0
-13 -4 -16 -10z"/>
<path d="M1495 119 c-27 -29 -50 -56 -50 -61 0 -6 -12 -20 -27 -32 -25 -19
-26 -22 -9 -23 13 -1 37 21 73 70 86 114 88 122 13 46z"/>
<path d="M653 138 c24 -100 47 -128 106 -127 29 1 36 4 19 6 -16 2 -28 9 -28
14 0 5 -6 9 -12 8 -29 -3 -37 3 -50 39 -13 36 -15 45 -17 70 0 6 -6 12 -12 12
-7 0 -9 -9 -6 -22z"/>
<path d="M1730 120 c-8 -5 -12 -12 -9 -15 4 -3 12 1 19 10 14 17 11 19 -10 5z"/>
<path d="M1785 119 c-4 -6 -5 -12 -2 -15 2 -3 7 2 10 11 7 17 1 20 -8 4z"/>
<path d="M1820 110 c-8 -5 -10 -10 -5 -10 6 0 17 5 25 10 8 5 11 10 5 10 -5 0
-17 -5 -25 -10z"/>
<path d="M1353 77 c-17 -18 -42 -40 -54 -49 -13 -10 -20 -20 -17 -23 2 -3 18
6 34 20 16 14 32 25 36 25 4 0 16 13 28 30 28 39 13 38 -27 -3z"/>
<path d="M473 77 c-33 -22 -46 -51 -18 -41 8 4 15 10 15 15 0 5 5 9 11 9 6 0
1 -13 -11 -30 -21 -30 -19 -41 3 -17 19 19 47 65 47 77 0 15 -11 12 -47 -13z"/>
<path d="M1885 90 c-3 -5 1 -10 10 -10 9 0 13 5 10 10 -3 6 -8 10 -10 10 -2 0
-7 -4 -10 -10z"/>
<path d="M566 78 c5 -8 2 -9 -9 -5 -10 3 -17 2 -17 -4 0 -16 33 -69 43 -69 4
0 1 10 -7 22 -9 12 -16 26 -16 30 0 17 16 7 35 -22 11 -16 24 -30 28 -30 5 0
0 12 -11 28 -10 15 -22 35 -25 45 -4 9 -11 17 -17 17 -6 0 -8 -5 -4 -12z"/>
<path d="M1845 80 c3 -5 11 -10 16 -10 6 0 7 5 4 10 -3 6 -11 10 -16 10 -6 0
-7 -4 -4 -10z"/>
<path d="M970 69 c0 -5 5 -7 10 -4 6 3 10 8 10 11 0 2 -4 4 -10 4 -5 0 -10 -5
-10 -11z"/>
<path d="M1721 39 c-22 -18 -22 -19 -3 -19 21 0 48 25 35 33 -4 3 -19 -3 -32
-14z"/>
<path d="M1935 50 c3 -5 18 -10 33 -10 21 0 24 2 12 10 -20 13 -53 13 -45 0z"/>
<path d="M631 45 c0 -13 28 -50 33 -44 3 2 -4 15 -14 29 -11 14 -20 21 -19 15z"/>
<path d="M1108 43 c-10 -2 -18 -12 -18 -20 0 -14 3 -13 23 3 12 10 24 20 26
21 6 4 -10 2 -31 -4z"/>
<path d="M946 31 c-3 -4 6 -6 19 -3 14 2 25 6 25 8 0 8 -39 4 -44 -5z"/>
<path d="M1860 30 c0 -5 4 -10 9 -10 6 0 13 5 16 10 3 6 -1 10 -9 10 -9 0 -16
-4 -16 -10z"/>
<path d="M400 13 c-13 -15 -12 -16 4 -10 10 4 20 7 22 7 2 0 4 5 4 10 0 15
-13 12 -30 -7z"/>
<path d="M1015 10 l-30 -8 37 -1 c20 0 40 4 43 9 7 11 -6 11 -50 0z"/>
<path d="M2008 3 c6 -2 18 -2 25 0 6 3 1 5 -13 5 -14 0 -19 -2 -12 -5z"/>
</g>
</svg>
